Coordinates
version=1
nRows=26
nColumns=24
inDegrees=yes

Units are S.I. units (second, meters, Newtons, ...)
Angles are in degrees.

endheader
time	pelvis_tilt	pelvis_list	pelvis_rotation	pelvis_tx	pelvis_ty	pelvis_tz	hip_flexion_r	hip_adduction_r	hip_rotation_r	knee_angle_r	ankle_angle_r	subtalar_angle_r	mtp_angle_r	hip_flexion_l	hip_adduction_l	hip_rotation_l	knee_angle_l	ankle_angle_l	subtalar_angle_l	mtp_angle_l	lumbar_extension	lumbar_bending	lumbar_rotation
      0.88766667	      1.40762430	     -1.75520368	     -1.41302125	     -0.18306704	      1.06183365	      0.35218960	     -8.75015826	      6.60068846	     -1.97604990	    -13.78986879	     12.21953576	     -6.17382794	     -0.82595975	     21.07666234	      0.11550862	     -8.04998811	     -8.07175772	      7.39610099	      2.66517826	      1.74658361	      1.69987193	      5.17516137	      0.58291143
      0.89183333	      1.44834318	     -1.71522552	     -1.35023785	     -0.17699563	      1.06124221	      0.35195376	     -8.90007688	      6.53154896	     -2.19253842	    -14.29598074	     12.37083911	     -5.96395944	     -0.82599257	     20.90493525	      0.27516029	     -8.10087599	     -7.79445502	      7.21742107	      3.23539936	      1.67657072	      1.79379496	      5.15079148	      0.62176936
      0.89600000	      1.43964658	     -1.74970017	     -1.40833859	     -0.17127600	      1.06058409	      0.35185087	     -8.92424905	      6.52345006	     -2.20795476	    -14.91731634	     12.33984209	     -5.95724935	     -0.82550688	     20.79894058	      0.31574260	     -8.03020985	     -7.62658716	      7.21923796	      3.35057253	      1.66732486	      1.80298877	      5.16005111	      0.61495199
      0.90016667	      1.50086946	     -1.73427923	     -1.38871377	     -0.16535129	      1.06005071	      0.35161169	     -9.01724126	      6.45440187	     -2.43755153	    -15.56735409	     12.41129694	     -5.57388558	     -0.81093950	     20.61410970	      0.43841010	     -7.97058545	     -7.53323451	      7.13260664	      3.86761833	      1.60508694	      1.75458094	      5.20298399	      0.64544014
      0.90433333	      1.51412871	     -1.75781780	     -1.45656331	     -0.15956351	      1.05947577	      0.35159264	     -9.01972209	      6.42755972	     -2.45223814	    -16.28439919	     12.36454715	     -5.56664510	     -0.80839335	     20.47942531	      0.47783137	     -7.86805807	     -7.52214146	      7.11692648	      3.95685585	      1.59863979	      1.79187309	      5.17699862	      0.64724284
      0.90850000	      1.54582461	     -1.73633474	     -1.46192634	     -0.15359514	      1.05895126	      0.35135760	     -9.01795909	      6.33074886	     -2.71012442	    -17.05871043	     12.33109017	     -5.16606196	     -0.77943659	     20.31213878	      0.60056808	     -7.70474457	     -7.55213103	      6.96778030	      4.27236067	      1.55794987	      1.75708673	      5.18142421	      0.69369644
      0.91266667	      1.56955875	     -1.72188303	     -1.56213170	     -0.14767306	      1.05846702	      0.35134281	     -8.97647292	      6.23377223	     -2.77818099	    -17.89485816	     12.26461817	     -5.09371393	     -0.76866508	     20.13431343	      0.67374598	     -7.56249844	     -7.62444192	      6.91611551	      4.37263990	      1.54930698	      1.76612377	      5.16549328	      0.70000640
      0.91683333	      1.63182055	     -1.74653300	     -1.62750782	     -0.14186365	      1.05802841	      0.35140015	     -8.94271428	      6.19175452	     -2.85400144	    -18.78275269	     12.16829172	     -5.03401925	     -0.76176659	     19.93845865	      0.70016529	     -7.43315840	     -7.78302393	      6.84713717	      4.45386214	      1.54658421	      1.82250364	      5.12161472	      0.71258915
      0.92100000	      1.70532097	     -1.68801794	     -1.62750499	     -0.13578866	      1.05764662	      0.35098587	     -8.89462799	      6.00471773	     -3.23975667	    -19.73332670	     12.02614436	     -4.19258267	     -0.66641108	     19.68042728	      0.88698683	     -7.07214686	     -7.88520464	      6.50695818	      4.49774343	      1.52250877	      1.76021297	      5.14910337	      0.81269641
      0.92516667	      1.77387264	     -1.69788049	     -1.70921743	     -0.12996998	      1.05727961	      0.35108593	     -8.79651979	      5.92822979	     -3.34113974	    -20.75664198	     11.90937119	     -4.16738003	     -0.65706219	     19.46364768	      0.91856602	     -6.96291340	     -8.11132813	      6.44194013	      4.53961639	      1.52226449	      1.79148493	      5.08028488	      0.82204261
      0.92933333	      1.82050765	     -1.62798880	     -1.75893022	     -0.12388411	      1.05693893	      0.35070878	     -8.64283676	      5.69881010	     -3.70284880	    -21.83801237	     11.54090565	     -3.44310617	     -0.52932405	     19.20739311	      1.10310637	     -6.61326791	     -8.23547933	      6.00236488	      4.27074378	      1.52104505	      1.72322439	      5.07875783	      0.91256615
      0.93350000	      1.85688137	     -1.58384055	     -1.86006269	     -0.11795239	      1.05660994	      0.35071545	     -8.43408824	      5.52463195	     -3.90341505	    -23.00499388	     11.35155498	     -3.34945713	     -0.49856635	     18.99031635	      1.20032789	     -6.50609942	     -8.45831593	      5.88493940	      4.24740055	      1.52423649	      1.65984262	      4.99450170	      0.92452435
      0.93766667	      1.93937514	     -1.52043491	     -1.89204834	     -0.11198845	      1.05636380	      0.35025704	     -8.23865688	      5.27876169	     -4.27490470	    -24.22507297	     11.02121851	     -2.58969830	     -0.20545684	     18.68515160	      1.38928352	     -6.05061873	     -8.59443392	      5.32932501	      3.38116935	      1.56316272	      1.65488860	      4.94442726	      1.05655772
      0.94183333	      1.98550574	     -1.45412773	     -2.00406661	     -0.10604991	      1.05612612	      0.35027633	     -7.96613277	      5.05925461	     -4.46747178	    -25.51236235	     10.68347315	     -2.47651355	     -0.16500167	     18.43375321	      1.50276182	     -5.94952206	     -8.80682869	      5.18089367	      3.40827184	      1.57136165	      1.59499799	      4.86411626	      1.05742720
      0.94600000	      2.04494659	     -1.40223002	     -2.06754913	     -0.10019953	      1.05591932	      0.35017985	     -7.66944700	      4.84631844	     -4.69736942	    -26.82003415	      9.89257387	     -1.98617058	     -0.04314657	     18.18008247	      1.61948646	     -5.80087855	     -9.02760972	      4.73861997	      3.10043603	      1.59090601	      1.58285631	      4.71639582	      1.10560801
      0.95016667	      2.07663770	     -1.31144430	     -2.16854601	     -0.09429458	      1.05573025	      0.35000275	     -7.29688602	      4.56051176	     -4.94087880	    -28.22502796	      9.26284767	     -1.58907279	      0.11880828	     17.92309189	      1.78050955	     -5.58762834	     -9.19685393	      4.31871995	      2.59079205	      1.61976497	      1.57533830	      4.59197201	      1.15832372
      0.95433333	      2.15250835	     -1.18056306	     -2.27718194	     -0.08832095	      1.05564699	      0.34991813	     -6.94447919	      4.22946227	     -5.18006710	    -29.69980876	      8.93964152	     -1.49784389	      0.16853817	     17.60976363	      1.96953801	     -5.49582049	     -9.37380187	      4.16800747	      2.51269951	      1.63029341	      1.54779694	      4.52992785	      1.16141171
      0.95850000	      2.15351179	     -1.06354527	     -2.35558701	     -0.08249582	      1.05546840	      0.34940185	     -6.45098559	      3.86813566	     -5.46065093	    -31.22184637	      8.04424705	     -0.97452869	      0.66278725	     17.35988985	      2.19957844	     -4.99232355	     -9.46341319	      3.32296165	      1.00008617	      1.72351168	      1.64503799	      4.40730280	      1.28746461
      0.96266667	      2.23689919	     -0.91879314	     -2.46357648	     -0.07663141	      1.05546405	      0.34932467	     -6.02840429	      3.50917542	     -5.65110995	    -32.76083131	      7.16779370	     -0.65410575	      0.88555275	     17.05238254	      2.39233149	     -4.98021625	     -9.65911837	      3.06381461	      0.77929501	      1.77319875	      1.63063188	      4.22609395	      1.29676151
      0.96683333	      2.28215165	     -0.79301744	     -2.57221511	     -0.07098876	      1.05541234	      0.34924434	     -5.50511169	      3.17217539	     -5.79292116	    -34.37958740	      6.33899997	     -0.43169798	      1.05075119	     16.80613364	      2.55698785	     -4.88871452	     -9.87962905	      2.78773433	      0.50289597	      1.80617466	      1.50507088	      3.95574368	      1.31435209
      0.97100000	      2.32510787	     -0.61876977	     -2.69699820	     -0.06522596	      1.05540597	      0.34910449	     -4.95524881	      2.76480358	     -5.92608177	    -36.02245259	      5.35799359	     -0.21942210	      1.22755639	     16.54219472	      2.77553297	     -4.81578822	    -10.06475536	      2.47582685	      0.11247916	      1.83818981	      1.48506499	      3.73689276	      1.33266781
      0.97516667	      2.36608916	     -0.43746625	     -2.80941740	     -0.05951914	      1.05541634	      0.34891002	     -4.36786084	      2.34535125	     -6.05505471	    -37.69998398	      4.35054380	     -0.06550084	      1.42416160	     16.29005974	      3.00247436	     -4.74527929	    -10.26283444	      2.16310839	     -0.33078994	      1.87197153	      1.47660314	      3.51806302	      1.35217272
      0.97933333	      2.42002911	     -0.24031276	     -2.91865373	     -0.05386143	      1.05546936	      0.34870692	     -3.76419575	      1.90727810	     -6.16249423	    -39.40724863	      3.40455577	      0.04116237	      1.59583890	     16.02866012	      3.24318100	     -4.67770720	    -10.46561648	      1.91471861	     -0.67404886	      1.90095539	      1.43229504	      3.27559247	      1.36391153
      0.98350000	      2.38312896	     -0.00792075	     -3.02473488	     -0.04803383	      1.05543059	      0.34833029	     -3.04717776	      1.41483802	     -6.28457130	    -41.11212528	      2.20751383	     -0.08830183	      2.12745605	     15.84447476	      3.53433319	     -4.55954924	    -10.62283477	      1.44827622	     -1.46755992	      1.98902180	      1.67968271	      3.18979958	      1.39092568
      0.98766667	      2.46002216	      0.18842592	     -3.08517198	     -0.04260953	      1.05552799	      0.34815096	     -2.41172340	      0.99804386	     -6.35011766	    -42.85692646	      1.41462343	      0.05118717	      2.26250579	     15.60156493	      3.76115961	     -4.55744373	    -10.90359577	      1.38385599	     -1.52363026	      2.01459415	      1.47306025	      2.80068575	      1.39003193
      0.99183333	      2.52981932	      0.42416803	     -3.22297503	     -0.03705312	      1.05568286	      0.34799707	     -1.74977212	      0.52794252	     -6.32577853	    -44.57527231	      0.30394966	      0.11229345	      2.41948866	     15.33150379	      4.01396382	     -4.62485678	    -11.11009569	      1.27973884	     -1.66791024	      2.04130210	      1.40328713	      2.49472017	      1.37076971
